# xmcd
#
# Track frame offsets:
#	150
#	26401
#	43473
#	63235
#	88117
#	103092
#	114401
#	136456
#	153435
#	178230
#	193504
#	212799
#
# Disc length: 3090 seconds
#
# Revision: 0
# Processed by: cddbd v1.5.2PL0 Copyright (c) Steve Scherf et al.
# Submitted via: audiograbber 1.83.01
#
DISCID=ac0c100c
DTITLE=Various Artist - All Hits 8007
DYEAR=1900
DGENRE=Karaoke
TTITLE0=Guns N Roses - Knocking On Heavens Door
TTITLE1=Katrina and the Waves - Walking on Sunshine
TTITLE2=Real Thing - You to me are Everything
TTITLE3=Chris Rea - On the Beach
TTITLE4=Smokey Robinson - Tears of a Clown
TTITLE5=T Rex - I Love to Boogie
TTITLE6=MC Hammer - You Cant Touch This
TTITLE7=Lenny Cravitz - Are You Going my Way
TTITLE8=Scorpions - Wind of Change
TTITLE9=Roxy Music - Virginia Plain
TTITLE10=Genesis - Mirror Man
TTITLE11=Phil Collins - I Cant Dance
EXTD=
EXTT0=
EXTT1=
EXTT2=
EXTT3=
EXTT4=
EXTT5=
EXTT6=
EXTT7=
EXTT8=
EXTT9=
EXTT10=
EXTT11=
PLAYORDER=
